<?xml version="1.0" standalone="no"?><!DOCTYPE svg PUBLIC "-//W3C//DTD SVG 1.1//EN" "http://www.w3.org/Graphics/SVG/1.1/DTD/svg11.dtd"><svg t="1621604319864" class="icon" viewBox="0 0 1024 1024" version="1.1" xmlns="http://www.w3.org/2000/svg" p-id="3047" xmlns:xlink="http://www.w3.org/1999/xlink" width="200" height="200"><defs><style type="text/css"></style></defs><path d="M769.092891 959.821305c-5.339612 0-10.682293-1.342578-15.511275-4.02671L512.374018 821.996287 270.651698 954.960601c-10.712993 5.919826-23.89113 5.148253-33.872458-1.918699-10.009981-7.066953-15.095813-19.254529-13.114692-31.314193l46.859237-284.613176L74.164628 435.122075c-8.252964-8.506744-11.167341-20.918425-7.452739-32.178887 3.674693-11.289114 13.304004-19.6045 25.00858-21.620413l155.00633-26.581402c17.624403-2.942005 33.969673 8.731872 36.94647 26.13217 2.972705 17.399275-8.702196 33.939997-26.136264 36.947494L162.412508 434.130492l165.270091 170.004929c7.072069 7.297197 10.268878 17.497513 8.638751 27.478841l-38.800701 235.577367L497.051031 757.413386c9.625218-5.308913 21.334911-5.308913 30.930453 0.063445l199.084221 110.416785-38.001499-235.674581c-1.630127-10.009981 1.63115-20.211321 8.702196-27.444049L862.364181 436.596659l-225.566362-34.80469c-10.553357-1.630127-19.571754-8.408507-24.116257-18.072611L513.525238 171.427324l-100.019994 211.749682c-7.549953 15.993253-26.614148 22.807449-42.608423 15.257495-15.959483-7.549953-22.802332-26.610054-15.257495-42.60433L484.738611 82.506109c5.305843-11.195993 16.565281-18.327414 28.913517-18.327414l0.063445 0c12.411681 0.034792 23.672142 7.228635 28.918633 18.454304l120.743992 258.514775 270.218328 41.710984c11.871375 1.820462 21.689998 10.136871 25.491581 21.493523 3.778046 11.352559 0.864694 23.925922-7.482415 32.462343L754.763534 637.944434l45.898353 284.745183c1.951445 12.088316-3.196809 24.241101-13.207813 31.279401C781.982456 957.903629 775.556093 959.821305 769.092891 959.821305L769.092891 959.821305zM769.092891 959.821305" p-id="3048" fill="#d4237a"></path></svg>