<?xml version="1.0" standalone="no"?><!DOCTYPE svg PUBLIC "-//W3C//DTD SVG 1.1//EN" "http://www.w3.org/Graphics/SVG/1.1/DTD/svg11.dtd"><svg t="1621605095718" class="icon" viewBox="0 0 1024 1024" version="1.1" xmlns="http://www.w3.org/2000/svg" p-id="4874" xmlns:xlink="http://www.w3.org/1999/xlink" width="200" height="200"><defs><style type="text/css"></style></defs><path d="M55.854545 265.309091m-55.854545 0a55.854545 55.854545 0 1 0 111.709091 0 55.854545 55.854545 0 1 0-111.709091 0Z" p-id="4875" fill="#d4237a"></path><path d="M982.109091 707.490909c-9.309091-9.309091-130.327273-130.327273-134.981818-204.8v-18.618182-18.618182c0-162.909091-158.254545-297.890909-353.745455-297.890909C297.890909 167.563636 139.636364 302.545455 139.636364 465.454545c0 88.436364 46.545455 176.872727 130.327272 232.727273 37.236364 23.272727 79.127273 41.890909 121.018182 55.854546 27.927273 4.654545 51.2 9.309091 79.127273 13.963636 37.236364 4.654545 69.818182 9.309091 102.4 23.272727 41.890909 18.618182 51.2 51.2 65.163636 88.436364 4.654545 13.963636 9.309091 23.272727 13.963637 37.236364 18.618182 41.890909 51.2 74.472727 88.436363 88.436363 65.163636 27.927273 134.981818 18.618182 190.836364-18.618182 55.854545-37.236364 88.436364-97.745455 88.436364-162.909091 4.654545-41.890909-9.309091-79.127273-37.236364-116.363636zM898.327273 930.909091c-23.272727 13.963636-46.545455 23.272727-69.818182 23.272727-18.618182 0-37.236364-4.654545-55.854546-9.309091-23.272727-9.309091-41.890909-27.927273-51.2-51.2-4.654545-13.963636-9.309091-23.272727-13.963636-37.236363-18.618182-46.545455-37.236364-97.745455-97.745454-130.327273-41.890909-18.618182-83.781818-23.272727-125.672728-27.927273-23.272727-4.654545-46.545455-4.654545-69.818182-9.309091-37.236364-9.309091-69.818182-23.272727-102.4-46.545454-65.163636-41.890909-102.4-107.054545-102.4-172.218182 0-125.672727 125.672727-228.072727 283.927273-228.072727s283.927273 102.4 283.927273 228.072727v23.272727s-4.654545 93.090909 102.4 200.145455c9.309091 4.654545 23.272727 23.272727 32.581818 41.890909 4.654545 9.309091 9.309091 13.963636 9.309091 18.618182 18.618182 23.272727 27.927273 51.2 27.927273 79.127272 4.654545 37.236364-18.618182 74.472727-51.2 97.745455zM502.690909 69.818182L493.381818 0C349.090909 0 232.727273 46.545455 144.290909 130.327273l46.545455 51.2C274.618182 102.4 372.363636 65.163636 502.690909 69.818182z" p-id="4876" fill="#d4237a"></path></svg>