<?xml version="1.0" standalone="no"?><!DOCTYPE svg PUBLIC "-//W3C//DTD SVG 1.1//EN" "http://www.w3.org/Graphics/SVG/1.1/DTD/svg11.dtd"><svg t="1621605069682" class="icon" viewBox="0 0 1024 1024" version="1.1" xmlns="http://www.w3.org/2000/svg" p-id="3990" xmlns:xlink="http://www.w3.org/1999/xlink" width="200" height="200"><defs><style type="text/css"></style></defs><path d="M899.2 259.008c78.08 84.48 80.96 218.496 8.64 306.688l-8.704 9.92-63.552-60.352c49.728-53.76 49.728-142.08 0-195.84-45.824-49.536-117.504-52.032-165.888-7.488l-7.424 7.488L512 481.92 361.728 319.36c-48.192-52.096-125.12-52.096-173.312 0-47.104 51.008-49.6 132.928-7.424 187.136l7.424 8.768 355.392 384.384-63.616 60.352-355.328-384.384c-81.152-87.68-81.152-228.864 0-316.608 79.68-86.144 208.256-89.216 291.392-9.216l9.088 9.216L512 352.768l86.656-93.76c82.624-89.344 217.856-89.344 300.48 0z m-112.704 349.504l-0.064 113.472h112v88.32h-112v113.536h-87.04l-0.064-113.536h-112v-88.32h112V608.512h87.168z" fill="#d4237a" p-id="3991"></path></svg>